<svg xmlns="http://www.w3.org/2000/svg" viewBox="0 0 64 64" fill="none">
  <defs>
    <linearGradient id="halo" x1="8" y1="8" x2="56" y2="56" gradientUnits="userSpaceOnUse">
      <stop offset="0" stop-color="#FF8A5B"/>
      <stop offset="0.5" stop-color="#F9C97A"/>
      <stop offset="1" stop-color="#33C3B3"/>
    </linearGradient>
    <linearGradient id="core" x1="20" y1="16" x2="44" y2="48" gradientUnits="userSpaceOnUse">
      <stop offset="0" stop-color="#1B3248"/>
      <stop offset="1" stop-color="#0E1D2B"/>
    </linearGradient>
    <filter id="softGlow" x="-20%" y="-20%" width="140%" height="140%">
      <feGaussianBlur stdDeviation="1.6" result="blur"/>
      <feMerge>
        <feMergeNode in="blur"/>
        <feMergeNode in="SourceGraphic"/>
      </feMerge>
    </filter>
  </defs>

  <rect width="64" height="64" rx="16" fill="#0C1520"/>

  <circle cx="32" cy="32" r="21.5" stroke="url(#halo)" stroke-width="4.5" filter="url(#softGlow)"/>
  <circle cx="32" cy="32" r="16.5" fill="url(#core)"/>

  <path
    d="M25 20.5h8.4c7.1 0 11.6 4.5 11.6 11.4c0 6.9-4.5 11.6-11.6 11.6H25V20.5Zm8.2 18.2c4.8 0 7.5-2.6 7.5-6.8c0-4.3-2.7-6.7-7.5-6.7h-3.8v13.5h3.8Z"
    fill="#F7FCFF"
  />

  <path
    d="M50.4 14.1l1.2 2.7l2.9 1l-2.9 1l-1.2 2.7l-1.2-2.7l-2.9-1l2.9-1l1.2-2.7Z"
    fill="#FFD983"
  />
</svg>
